<svg width="101" height="113" viewBox="0 0 101 113" fill="none" xmlns="http://www.w3.org/2000/svg">
<path d="M85.45 57.86L75.07 61.78C74.8288 61.8668 74.5682 61.8847 74.3174 61.8317C74.0665 61.7788 73.8354 61.657 73.65 61.48C73.4682 61.2975 73.3425 61.0669 73.2876 60.8153C73.2326 60.5637 73.2508 60.3016 73.34 60.06L77.18 49.65C77.2465 49.4631 77.3522 49.2926 77.49 49.15L88.74 37.82C83.9714 28.4293 75.9222 21.1153 66.1192 17.2652C56.3161 13.4151 45.4409 13.2967 35.5563 16.9323C25.6717 20.568 17.4651 27.705 12.4931 36.9895C7.52115 46.2741 6.12954 57.0605 8.58226 67.303C11.035 77.5454 17.1614 86.5315 25.7996 92.5569C34.4378 98.5823 44.987 101.228 55.4462 99.9919C65.9055 98.756 75.5474 93.7244 82.5432 85.8515C89.539 77.9786 93.4022 67.812 93.4 57.28C93.396 55.033 93.2189 52.7897 92.87 50.57L85.95 57.57C85.8074 57.7032 85.6364 57.8024 85.45 57.86V57.86Z" fill="#86C3D0"/>
<path d="M85.11 56.17L92.54 48.69C91.8901 45.5103 90.8838 42.4141 89.54 39.46L79 50.09L85.11 56.17Z" fill="#86C3D0"/>
<path d="M74.99 60.1301L83.8 56.59L78.46 51.3L74.99 60.1301Z" fill="#86C3D0"/>
<path d="M85.1101 56.1699L79.0001 50.0899L89.5301 39.4599C89.2801 38.9099 89.0201 38.3599 88.7401 37.8199L77.4901 49.1499C77.3522 49.2926 77.2465 49.4631 77.1801 49.6499L73.3401 60.0599C73.2509 60.3016 73.2327 60.5636 73.2877 60.8152C73.3426 61.0668 73.4683 61.2975 73.6501 61.4799C73.8355 61.6569 74.0666 61.7787 74.3174 61.8317C74.5683 61.8847 74.8289 61.8668 75.0701 61.7799L85.4501 57.8599C85.6393 57.7936 85.8105 57.684 85.9501 57.5399L92.8701 50.5399C92.7701 49.9099 92.6601 49.2799 92.5401 48.6599L85.1101 56.1699ZM75.0001 60.1299L78.4701 51.2899L83.8101 56.5899L75.0001 60.1299Z" fill="white"/>
<path d="M30.4503 77.6872C35.0196 71.7675 39.1698 65.5458 42.8715 59.0659C44.6202 55.8977 46.1 52.5928 47.2958 49.185C47.84 47.6255 48.3013 46.0427 48.6917 44.4482C49.0821 42.8538 49.7091 41.0266 49.1531 39.5601C48.183 37.023 44.989 37.9773 43.6996 39.6183C41.6057 42.3068 40.3872 46.1241 39.4172 49.3363C37.284 56.2836 36.7585 63.6126 37.8793 70.7857C38.0568 71.9495 38.3762 73.4392 39.5237 74.0677C40.9314 74.8242 42.1617 73.7884 43.0726 72.8224C45.667 70.0314 47.5735 66.6903 48.6444 63.0579C48.6697 62.913 48.6502 62.7641 48.5885 62.6303C48.5267 62.4965 48.4255 62.3841 48.298 62.3076C48.1705 62.231 48.0226 62.194 47.8734 62.2012C47.7242 62.2084 47.5807 62.2595 47.4614 62.3479C46.1994 63.511 45.2182 64.9374 44.5897 66.5224C43.9613 68.1073 43.7016 69.8107 43.8297 71.5073C43.8314 71.6185 43.8587 71.7279 43.9097 71.8272C43.9608 71.9265 44.0341 72.013 44.1241 72.0803C44.2142 72.1476 44.3186 72.1938 44.4295 72.2155C44.5404 72.2372 44.6549 72.2338 44.7642 72.2056C46.7965 71.4577 48.6541 70.3134 50.2255 68.8414C51.797 67.3694 53.0497 65.6001 53.9086 63.6398H52.5719C53.0064 64.2792 53.6569 64.7467 54.4081 64.9597C55.1594 65.1727 55.963 65.1174 56.6768 64.8036C58.7233 64.0704 59.6224 61.9173 61.4796 60.9397C63.5853 59.7759 66.0932 60.6836 68.2226 61.2656C70.2271 61.9479 72.3573 62.1979 74.4687 61.9988C75.4032 61.8591 75.001 60.4625 74.0665 60.5905C70.2573 61.1492 66.7675 58.5655 62.9584 58.9961C61.3939 59.2062 59.9582 59.962 58.9126 61.1259C57.9307 62.1268 55.2335 65.1411 53.8495 62.9415C53.5892 62.5341 52.8084 62.4177 52.5719 62.9415C51.8091 64.7427 50.6815 66.3723 49.2579 67.7309C47.8342 69.0895 46.1443 70.1487 44.291 70.8439L45.2256 71.5538C45.096 70.0465 45.3162 68.53 45.8695 67.1187C46.4228 65.7074 47.2948 64.4383 48.4196 63.407L47.2366 62.7087C46.3992 65.5108 45.0393 68.1353 43.2264 70.4482C42.8005 70.9835 42.351 71.5073 41.8778 71.9961C41.6401 72.3163 41.3042 72.5529 40.9196 72.6711L40.4109 72.8922C40.0548 72.6823 39.7895 72.351 39.6656 71.9612C39.2358 70.6367 39.0163 69.2548 39.015 67.8645C38.4486 61.9316 39.0184 55.9469 40.6948 50.2208C41.5211 47.3497 42.6346 44.5661 44.019 41.9111C44.6104 40.8171 46.3849 38.1635 47.5679 40.0722C48.3013 41.236 47.3786 43.5637 47.0474 44.7857C45.5292 50.3899 43.228 55.7598 40.2098 60.7418C36.8156 66.3326 33.1194 71.7406 29.1372 76.9423C28.5812 77.7105 29.8588 78.432 30.4148 77.6872H30.4503Z" fill="white"/>
</svg>
